<mxfile host="Electron" agent="Mozilla/5.0 (Windows NT 10.0; Win64; x64) AppleWebKit/537.36 (KHTML, like Gecko) draw.io/24.7.5 Chrome/126.0.6478.183 Electron/31.3.0 Safari/537.36" version="24.7.5">
  <diagram id="C5RBs43oDa-KdzZeNtuy" name="Page-1">
    <mxGraphModel dx="1459" dy="1235" grid="1" gridSize="10" guides="1" tooltips="1" connect="1" arrows="1" fold="1" page="1" pageScale="1" pageWidth="827" pageHeight="1169" math="0" shadow="0">
      <root>
        <mxCell id="WIyWlLk6GJQsqaUBKTNV-0" />
        <mxCell id="WIyWlLk6GJQsqaUBKTNV-1" parent="WIyWlLk6GJQsqaUBKTNV-0" />
        <mxCell id="l0bkgJuItSsvN-obVmJq-4" value="Warehouse" style="swimlane;fontStyle=1;align=center;verticalAlign=top;childLayout=stackLayout;horizontal=1;startSize=26;horizontalStack=0;resizeParent=1;resizeParentMax=0;resizeLast=0;collapsible=1;marginBottom=0;whiteSpace=wrap;html=1;" parent="WIyWlLk6GJQsqaUBKTNV-1" vertex="1">
          <mxGeometry x="64" y="230" width="160" height="86" as="geometry" />
        </mxCell>
        <mxCell id="l0bkgJuItSsvN-obVmJq-5" value="- name: string" style="text;strokeColor=none;fillColor=none;align=left;verticalAlign=top;spacingLeft=4;spacingRight=4;overflow=hidden;rotatable=0;points=[[0,0.5],[1,0.5]];portConstraint=eastwest;whiteSpace=wrap;html=1;" parent="l0bkgJuItSsvN-obVmJq-4" vertex="1">
          <mxGeometry y="26" width="160" height="26" as="geometry" />
        </mxCell>
        <mxCell id="l0bkgJuItSsvN-obVmJq-40" value="- location: string" style="text;strokeColor=none;fillColor=none;align=left;verticalAlign=top;spacingLeft=4;spacingRight=4;overflow=hidden;rotatable=0;points=[[0,0.5],[1,0.5]];portConstraint=eastwest;whiteSpace=wrap;html=1;" parent="l0bkgJuItSsvN-obVmJq-4" vertex="1">
          <mxGeometry y="52" width="160" height="26" as="geometry" />
        </mxCell>
        <mxCell id="l0bkgJuItSsvN-obVmJq-6" value="" style="line;strokeWidth=1;fillColor=none;align=left;verticalAlign=middle;spacingTop=-1;spacingLeft=3;spacingRight=3;rotatable=0;labelPosition=right;points=[];portConstraint=eastwest;strokeColor=inherit;" parent="l0bkgJuItSsvN-obVmJq-4" vertex="1">
          <mxGeometry y="78" width="160" height="8" as="geometry" />
        </mxCell>
        <mxCell id="l0bkgJuItSsvN-obVmJq-8" value="Product" style="swimlane;fontStyle=1;align=center;verticalAlign=top;childLayout=stackLayout;horizontal=1;startSize=26;horizontalStack=0;resizeParent=1;resizeParentMax=0;resizeLast=0;collapsible=1;marginBottom=0;whiteSpace=wrap;html=1;" parent="WIyWlLk6GJQsqaUBKTNV-1" vertex="1">
          <mxGeometry x="604" y="88" width="160" height="104" as="geometry" />
        </mxCell>
        <mxCell id="l0bkgJuItSsvN-obVmJq-9" value="+ ProductNumber: int" style="text;strokeColor=none;fillColor=none;align=left;verticalAlign=top;spacingLeft=4;spacingRight=4;overflow=hidden;rotatable=0;points=[[0,0.5],[1,0.5]];portConstraint=eastwest;whiteSpace=wrap;html=1;" parent="l0bkgJuItSsvN-obVmJq-8" vertex="1">
          <mxGeometry y="26" width="160" height="26" as="geometry" />
        </mxCell>
        <mxCell id="l0bkgJuItSsvN-obVmJq-45" value="+ Name: string" style="text;strokeColor=none;fillColor=none;align=left;verticalAlign=top;spacingLeft=4;spacingRight=4;overflow=hidden;rotatable=0;points=[[0,0.5],[1,0.5]];portConstraint=eastwest;whiteSpace=wrap;html=1;" parent="l0bkgJuItSsvN-obVmJq-8" vertex="1">
          <mxGeometry y="52" width="160" height="26" as="geometry" />
        </mxCell>
        <mxCell id="l0bkgJuItSsvN-obVmJq-46" value="+ ProductAmount: int" style="text;strokeColor=none;fillColor=none;align=left;verticalAlign=top;spacingLeft=4;spacingRight=4;overflow=hidden;rotatable=0;points=[[0,0.5],[1,0.5]];portConstraint=eastwest;whiteSpace=wrap;html=1;" parent="l0bkgJuItSsvN-obVmJq-8" vertex="1">
          <mxGeometry y="78" width="160" height="26" as="geometry" />
        </mxCell>
        <mxCell id="l0bkgJuItSsvN-obVmJq-12" value="&lt;b&gt;AutomaticWagon&lt;/b&gt;" style="swimlane;fontStyle=0;childLayout=stackLayout;horizontal=1;startSize=26;fillColor=none;horizontalStack=0;resizeParent=1;resizeParentMax=0;resizeLast=0;collapsible=1;marginBottom=0;whiteSpace=wrap;html=1;" parent="WIyWlLk6GJQsqaUBKTNV-1" vertex="1">
          <mxGeometry x="300" y="275" width="186" height="190" as="geometry" />
        </mxCell>
        <mxCell id="l0bkgJuItSsvN-obVmJq-13" value="+ WagonNumber: int" style="text;strokeColor=none;fillColor=none;align=left;verticalAlign=top;spacingLeft=4;spacingRight=4;overflow=hidden;rotatable=0;points=[[0,0.5],[1,0.5]];portConstraint=eastwest;whiteSpace=wrap;html=1;" parent="l0bkgJuItSsvN-obVmJq-12" vertex="1">
          <mxGeometry y="26" width="186" height="24" as="geometry" />
        </mxCell>
        <mxCell id="l0bkgJuItSsvN-obVmJq-43" value="" style="line;strokeWidth=1;fillColor=none;align=left;verticalAlign=middle;spacingTop=-1;spacingLeft=3;spacingRight=3;rotatable=0;labelPosition=right;points=[];portConstraint=eastwest;strokeColor=inherit;" parent="l0bkgJuItSsvN-obVmJq-12" vertex="1">
          <mxGeometry y="50" width="186" height="8" as="geometry" />
        </mxCell>
        <mxCell id="l0bkgJuItSsvN-obVmJq-44" value="+ ProcessOrders(): void" style="text;strokeColor=none;fillColor=none;align=left;verticalAlign=top;spacingLeft=4;spacingRight=4;overflow=hidden;rotatable=0;points=[[0,0.5],[1,0.5]];portConstraint=eastwest;whiteSpace=wrap;html=1;" parent="l0bkgJuItSsvN-obVmJq-12" vertex="1">
          <mxGeometry y="58" width="186" height="22" as="geometry" />
        </mxCell>
        <mxCell id="G9Mh11JKiJDhLzEOdRdI-10" value="+ UnloadOrder(transportOrder:&amp;nbsp; TreansportOrder): void" style="text;strokeColor=none;fillColor=none;align=left;verticalAlign=top;spacingLeft=4;spacingRight=4;overflow=hidden;rotatable=0;points=[[0,0.5],[1,0.5]];portConstraint=eastwest;whiteSpace=wrap;html=1;" parent="l0bkgJuItSsvN-obVmJq-12" vertex="1">
          <mxGeometry y="80" width="186" height="40" as="geometry" />
        </mxCell>
        <mxCell id="JgdkJnu1-L6zXaN40aUp-0" value="+ LoadOrder(transportOrder: TransportOrder): void" style="text;strokeColor=none;fillColor=none;align=left;verticalAlign=top;spacingLeft=4;spacingRight=4;overflow=hidden;rotatable=0;points=[[0,0.5],[1,0.5]];portConstraint=eastwest;whiteSpace=wrap;html=1;" parent="l0bkgJuItSsvN-obVmJq-12" vertex="1">
          <mxGeometry y="120" width="186" height="40" as="geometry" />
        </mxCell>
        <mxCell id="JqkSWuU3WNlZwDRj2-x3-0" value="+ MoveToCell(Cell: Cell): void" style="text;strokeColor=none;fillColor=none;align=left;verticalAlign=top;spacingLeft=4;spacingRight=4;overflow=hidden;rotatable=0;points=[[0,0.5],[1,0.5]];portConstraint=eastwest;whiteSpace=wrap;html=1;" parent="l0bkgJuItSsvN-obVmJq-12" vertex="1">
          <mxGeometry y="160" width="186" height="30" as="geometry" />
        </mxCell>
        <mxCell id="l0bkgJuItSsvN-obVmJq-17" value="For All Transport Orders" style="shape=umlFrame;whiteSpace=wrap;html=1;pointerEvents=0;width=60;height=50;" parent="WIyWlLk6GJQsqaUBKTNV-1" vertex="1">
          <mxGeometry x="936" y="275" width="596" height="300" as="geometry" />
        </mxCell>
        <mxCell id="l0bkgJuItSsvN-obVmJq-20" value="&lt;span style=&quot;font-weight: 700;&quot;&gt;:TransportOrder&lt;/span&gt;" style="shape=umlLifeline;perimeter=lifelinePerimeter;whiteSpace=wrap;html=1;container=1;dropTarget=0;collapsible=0;recursiveResize=0;outlineConnect=0;portConstraint=eastwest;newEdgeStyle={&quot;curved&quot;:0,&quot;rounded&quot;:0};" parent="WIyWlLk6GJQsqaUBKTNV-1" vertex="1">
          <mxGeometry x="1340" y="120" width="100" height="560" as="geometry" />
        </mxCell>
        <mxCell id="dlioZaG6fR1Z9XJ0UVmh-18" value="" style="html=1;points=[[0,0,0,0,5],[0,1,0,0,-5],[1,0,0,0,5],[1,1,0,0,-5]];perimeter=orthogonalPerimeter;outlineConnect=0;targetShapes=umlLifeline;portConstraint=eastwest;newEdgeStyle={&quot;curved&quot;:0,&quot;rounded&quot;:0};" vertex="1" parent="l0bkgJuItSsvN-obVmJq-20">
          <mxGeometry x="45" y="180" width="10" height="350" as="geometry" />
        </mxCell>
        <mxCell id="l0bkgJuItSsvN-obVmJq-21" value="&lt;b&gt;:AutomaticWagon&lt;/b&gt;" style="shape=umlLifeline;perimeter=lifelinePerimeter;whiteSpace=wrap;html=1;container=1;dropTarget=0;collapsible=0;recursiveResize=0;outlineConnect=0;portConstraint=eastwest;newEdgeStyle={&quot;curved&quot;:0,&quot;rounded&quot;:0};" parent="WIyWlLk6GJQsqaUBKTNV-1" vertex="1">
          <mxGeometry x="970" y="120" width="100" height="560" as="geometry" />
        </mxCell>
        <mxCell id="_eay62i7xfqFpYBntlEC-1" value="" style="html=1;points=[[0,0,0,0,5],[0,1,0,0,-5],[1,0,0,0,5],[1,1,0,0,-5]];perimeter=orthogonalPerimeter;outlineConnect=0;targetShapes=umlLifeline;portConstraint=eastwest;newEdgeStyle={&quot;curved&quot;:0,&quot;rounded&quot;:0};" parent="l0bkgJuItSsvN-obVmJq-21" vertex="1">
          <mxGeometry x="45" y="50" width="10" height="480" as="geometry" />
        </mxCell>
        <mxCell id="l0bkgJuItSsvN-obVmJq-23" value="&lt;b&gt;:Cell&lt;/b&gt;" style="shape=umlLifeline;perimeter=lifelinePerimeter;whiteSpace=wrap;html=1;container=1;dropTarget=0;collapsible=0;recursiveResize=0;outlineConnect=0;portConstraint=eastwest;newEdgeStyle={&quot;curved&quot;:0,&quot;rounded&quot;:0};" parent="WIyWlLk6GJQsqaUBKTNV-1" vertex="1">
          <mxGeometry x="1220" y="120" width="100" height="560" as="geometry" />
        </mxCell>
        <mxCell id="_eay62i7xfqFpYBntlEC-26" value="" style="html=1;points=[[0,0,0,0,5],[0,1,0,0,-5],[1,0,0,0,5],[1,1,0,0,-5]];perimeter=orthogonalPerimeter;outlineConnect=0;targetShapes=umlLifeline;portConstraint=eastwest;newEdgeStyle={&quot;curved&quot;:0,&quot;rounded&quot;:0};" parent="l0bkgJuItSsvN-obVmJq-23" vertex="1">
          <mxGeometry x="41" y="165" width="10" height="60" as="geometry" />
        </mxCell>
        <mxCell id="dlioZaG6fR1Z9XJ0UVmh-19" value="" style="html=1;points=[[0,0,0,0,5],[0,1,0,0,-5],[1,0,0,0,5],[1,1,0,0,-5]];perimeter=orthogonalPerimeter;outlineConnect=0;targetShapes=umlLifeline;portConstraint=eastwest;newEdgeStyle={&quot;curved&quot;:0,&quot;rounded&quot;:0};" vertex="1" parent="l0bkgJuItSsvN-obVmJq-23">
          <mxGeometry x="41" y="260" width="10" height="45" as="geometry" />
        </mxCell>
        <mxCell id="l0bkgJuItSsvN-obVmJq-24" value="TransportOrder" style="swimlane;fontStyle=1;align=center;verticalAlign=top;childLayout=stackLayout;horizontal=1;startSize=26;horizontalStack=0;resizeParent=1;resizeParentMax=0;resizeLast=0;collapsible=1;marginBottom=0;whiteSpace=wrap;html=1;" parent="WIyWlLk6GJQsqaUBKTNV-1" vertex="1">
          <mxGeometry x="574" y="331" width="190" height="88" as="geometry" />
        </mxCell>
        <mxCell id="l0bkgJuItSsvN-obVmJq-25" value="+ TranportOrderNumber: int" style="text;strokeColor=none;fillColor=none;align=left;verticalAlign=top;spacingLeft=4;spacingRight=4;overflow=hidden;rotatable=0;points=[[0,0.5],[1,0.5]];portConstraint=eastwest;whiteSpace=wrap;html=1;" parent="l0bkgJuItSsvN-obVmJq-24" vertex="1">
          <mxGeometry y="26" width="190" height="26" as="geometry" />
        </mxCell>
        <mxCell id="l0bkgJuItSsvN-obVmJq-49" value="+ Quantity: int" style="text;strokeColor=none;fillColor=none;align=left;verticalAlign=top;spacingLeft=4;spacingRight=4;overflow=hidden;rotatable=0;points=[[0,0.5],[1,0.5]];portConstraint=eastwest;whiteSpace=wrap;html=1;" parent="l0bkgJuItSsvN-obVmJq-24" vertex="1">
          <mxGeometry y="52" width="190" height="26" as="geometry" />
        </mxCell>
        <mxCell id="uTPsAD51TObqUirzpCga-0" value="" style="line;strokeWidth=1;fillColor=none;align=left;verticalAlign=middle;spacingTop=-1;spacingLeft=3;spacingRight=3;rotatable=0;labelPosition=right;points=[];portConstraint=eastwest;strokeColor=inherit;" parent="l0bkgJuItSsvN-obVmJq-24" vertex="1">
          <mxGeometry y="78" width="190" height="10" as="geometry" />
        </mxCell>
        <mxCell id="l0bkgJuItSsvN-obVmJq-28" value="Cell" style="swimlane;fontStyle=1;align=center;verticalAlign=top;childLayout=stackLayout;horizontal=1;startSize=26;horizontalStack=0;resizeParent=1;resizeParentMax=0;resizeLast=0;collapsible=1;marginBottom=0;whiteSpace=wrap;html=1;" parent="WIyWlLk6GJQsqaUBKTNV-1" vertex="1">
          <mxGeometry x="224" y="40" width="160" height="170" as="geometry" />
        </mxCell>
        <mxCell id="l0bkgJuItSsvN-obVmJq-29" value="- cellNumber: int" style="text;strokeColor=none;fillColor=none;align=left;verticalAlign=top;spacingLeft=4;spacingRight=4;overflow=hidden;rotatable=0;points=[[0,0.5],[1,0.5]];portConstraint=eastwest;whiteSpace=wrap;html=1;" parent="l0bkgJuItSsvN-obVmJq-28" vertex="1">
          <mxGeometry y="26" width="160" height="26" as="geometry" />
        </mxCell>
        <mxCell id="l0bkgJuItSsvN-obVmJq-53" value="+ OccupiedSpace: int" style="text;strokeColor=none;fillColor=none;align=left;verticalAlign=top;spacingLeft=4;spacingRight=4;overflow=hidden;rotatable=0;points=[[0,0.5],[1,0.5]];portConstraint=eastwest;whiteSpace=wrap;html=1;" parent="l0bkgJuItSsvN-obVmJq-28" vertex="1">
          <mxGeometry y="52" width="160" height="26" as="geometry" />
        </mxCell>
        <mxCell id="l0bkgJuItSsvN-obVmJq-30" value="" style="line;strokeWidth=1;fillColor=none;align=left;verticalAlign=middle;spacingTop=-1;spacingLeft=3;spacingRight=3;rotatable=0;labelPosition=right;points=[];portConstraint=eastwest;strokeColor=inherit;" parent="l0bkgJuItSsvN-obVmJq-28" vertex="1">
          <mxGeometry y="78" width="160" height="8" as="geometry" />
        </mxCell>
        <mxCell id="l0bkgJuItSsvN-obVmJq-41" value="+ StoreProduct(product: Product): void" style="text;strokeColor=none;fillColor=none;align=left;verticalAlign=top;spacingLeft=4;spacingRight=4;overflow=hidden;rotatable=0;points=[[0,0.5],[1,0.5]];portConstraint=eastwest;whiteSpace=wrap;html=1;" parent="l0bkgJuItSsvN-obVmJq-28" vertex="1">
          <mxGeometry y="86" width="160" height="34" as="geometry" />
        </mxCell>
        <mxCell id="PUuQY5kZzYGH_yBlLmXl-20" value="+ RemoveProduct(product: Product, quantity: int): Product" style="text;strokeColor=none;fillColor=none;align=left;verticalAlign=top;spacingLeft=4;spacingRight=4;overflow=hidden;rotatable=0;points=[[0,0.5],[1,0.5]];portConstraint=eastwest;whiteSpace=wrap;html=1;" parent="l0bkgJuItSsvN-obVmJq-28" vertex="1">
          <mxGeometry y="120" width="160" height="50" as="geometry" />
        </mxCell>
        <mxCell id="l0bkgJuItSsvN-obVmJq-32" value="" style="endArrow=diamondThin;endFill=1;endSize=24;html=1;rounded=0;startArrow=open;startFill=0;startSize=14;exitX=0;exitY=0.5;exitDx=0;exitDy=0;entryX=0.25;entryY=0;entryDx=0;entryDy=0;" parent="WIyWlLk6GJQsqaUBKTNV-1" source="l0bkgJuItSsvN-obVmJq-41" target="l0bkgJuItSsvN-obVmJq-4" edge="1">
          <mxGeometry width="160" relative="1" as="geometry">
            <mxPoint x="174.99999999999977" y="163.20610687022918" as="sourcePoint" />
            <mxPoint x="124" y="338" as="targetPoint" />
            <Array as="points">
              <mxPoint x="124" y="178" />
            </Array>
          </mxGeometry>
        </mxCell>
        <mxCell id="T_0owWQvcmnTcTzwhE1--0" value="1..*" style="edgeLabel;html=1;align=center;verticalAlign=middle;resizable=0;points=[];" parent="l0bkgJuItSsvN-obVmJq-32" vertex="1" connectable="0">
          <mxGeometry x="0.7112" y="1" relative="1" as="geometry">
            <mxPoint x="94" y="-94" as="offset" />
          </mxGeometry>
        </mxCell>
        <mxCell id="PUuQY5kZzYGH_yBlLmXl-0" value="consists of" style="edgeLabel;html=1;align=center;verticalAlign=middle;resizable=0;points=[];" parent="l0bkgJuItSsvN-obVmJq-32" vertex="1" connectable="0">
          <mxGeometry x="0.4347" y="4" relative="1" as="geometry">
            <mxPoint x="16" y="-39" as="offset" />
          </mxGeometry>
        </mxCell>
        <mxCell id="l0bkgJuItSsvN-obVmJq-35" value="Is on" style="endArrow=open;endSize=12;html=1;rounded=0;" parent="WIyWlLk6GJQsqaUBKTNV-1" source="l0bkgJuItSsvN-obVmJq-12" target="l0bkgJuItSsvN-obVmJq-28" edge="1">
          <mxGeometry width="160" relative="1" as="geometry">
            <mxPoint x="354" y="268" as="sourcePoint" />
            <mxPoint x="514" y="268" as="targetPoint" />
          </mxGeometry>
        </mxCell>
        <mxCell id="PUuQY5kZzYGH_yBlLmXl-8" value="1" style="edgeLabel;html=1;align=center;verticalAlign=middle;resizable=0;points=[];" parent="l0bkgJuItSsvN-obVmJq-35" vertex="1" connectable="0">
          <mxGeometry x="0.4915" y="-3" relative="1" as="geometry">
            <mxPoint x="4" as="offset" />
          </mxGeometry>
        </mxCell>
        <mxCell id="PUuQY5kZzYGH_yBlLmXl-9" value="0..1" style="edgeLabel;html=1;align=center;verticalAlign=middle;resizable=0;points=[];" parent="l0bkgJuItSsvN-obVmJq-35" vertex="1" connectable="0">
          <mxGeometry x="-0.6624" y="-3" relative="1" as="geometry">
            <mxPoint x="21" as="offset" />
          </mxGeometry>
        </mxCell>
        <mxCell id="l0bkgJuItSsvN-obVmJq-38" value="" style="endArrow=none;endFill=0;endSize=24;html=1;rounded=0;startArrow=open;startFill=0;startSize=14;" parent="WIyWlLk6GJQsqaUBKTNV-1" source="l0bkgJuItSsvN-obVmJq-8" target="l0bkgJuItSsvN-obVmJq-28" edge="1">
          <mxGeometry width="160" relative="1" as="geometry">
            <mxPoint x="404" y="328" as="sourcePoint" />
            <mxPoint x="564" y="328" as="targetPoint" />
          </mxGeometry>
        </mxCell>
        <mxCell id="T_0owWQvcmnTcTzwhE1--1" value="0..n" style="edgeLabel;html=1;align=center;verticalAlign=middle;resizable=0;points=[];" parent="l0bkgJuItSsvN-obVmJq-38" vertex="1" connectable="0">
          <mxGeometry x="-0.202" relative="1" as="geometry">
            <mxPoint x="68" y="-12" as="offset" />
          </mxGeometry>
        </mxCell>
        <mxCell id="PUuQY5kZzYGH_yBlLmXl-1" value="store" style="edgeLabel;html=1;align=center;verticalAlign=middle;resizable=0;points=[];" parent="l0bkgJuItSsvN-obVmJq-38" vertex="1" connectable="0">
          <mxGeometry x="0.1462" relative="1" as="geometry">
            <mxPoint as="offset" />
          </mxGeometry>
        </mxCell>
        <mxCell id="PUuQY5kZzYGH_yBlLmXl-7" value="1" style="edgeLabel;html=1;align=center;verticalAlign=middle;resizable=0;points=[];" parent="l0bkgJuItSsvN-obVmJq-38" vertex="1" connectable="0">
          <mxGeometry x="0.6979" relative="1" as="geometry">
            <mxPoint x="-27" y="-9" as="offset" />
          </mxGeometry>
        </mxCell>
        <mxCell id="l0bkgJuItSsvN-obVmJq-60" value="" style="endArrow=open;endFill=1;endSize=12;html=1;rounded=0;" parent="WIyWlLk6GJQsqaUBKTNV-1" source="l0bkgJuItSsvN-obVmJq-24" target="l0bkgJuItSsvN-obVmJq-8" edge="1">
          <mxGeometry width="160" relative="1" as="geometry">
            <mxPoint x="484" y="638" as="sourcePoint" />
            <mxPoint x="644" y="638" as="targetPoint" />
            <Array as="points">
              <mxPoint x="664" y="268" />
            </Array>
          </mxGeometry>
        </mxCell>
        <mxCell id="uTPsAD51TObqUirzpCga-5" value="1..n" style="edgeLabel;html=1;align=center;verticalAlign=middle;resizable=0;points=[];" parent="l0bkgJuItSsvN-obVmJq-60" vertex="1" connectable="0">
          <mxGeometry x="0.227" y="-1" relative="1" as="geometry">
            <mxPoint x="11" y="-25" as="offset" />
          </mxGeometry>
        </mxCell>
        <mxCell id="PUuQY5kZzYGH_yBlLmXl-2" value="0..n" style="edgeLabel;html=1;align=center;verticalAlign=middle;resizable=0;points=[];" parent="l0bkgJuItSsvN-obVmJq-60" vertex="1" connectable="0">
          <mxGeometry x="-0.6573" y="-1" relative="1" as="geometry">
            <mxPoint x="-18" y="3" as="offset" />
          </mxGeometry>
        </mxCell>
        <mxCell id="PUuQY5kZzYGH_yBlLmXl-3" value="contains" style="edgeLabel;html=1;align=center;verticalAlign=middle;resizable=0;points=[];" parent="l0bkgJuItSsvN-obVmJq-60" vertex="1" connectable="0">
          <mxGeometry x="0.1101" relative="1" as="geometry">
            <mxPoint as="offset" />
          </mxGeometry>
        </mxCell>
        <mxCell id="l0bkgJuItSsvN-obVmJq-61" value="&lt;span style=&quot;font-weight: 700;&quot;&gt;:Warehouse&lt;/span&gt;" style="shape=umlLifeline;perimeter=lifelinePerimeter;whiteSpace=wrap;html=1;container=1;dropTarget=0;collapsible=0;recursiveResize=0;outlineConnect=0;portConstraint=eastwest;newEdgeStyle={&quot;curved&quot;:0,&quot;rounded&quot;:0};" parent="WIyWlLk6GJQsqaUBKTNV-1" vertex="1">
          <mxGeometry x="1100" y="120" width="100" height="560" as="geometry" />
        </mxCell>
        <mxCell id="_eay62i7xfqFpYBntlEC-4" value="Actor" style="shape=umlLifeline;perimeter=lifelinePerimeter;whiteSpace=wrap;html=1;container=1;dropTarget=0;collapsible=0;recursiveResize=0;outlineConnect=0;portConstraint=eastwest;newEdgeStyle={&quot;curved&quot;:0,&quot;rounded&quot;:0};participant=umlActor;size=50;" parent="WIyWlLk6GJQsqaUBKTNV-1" vertex="1">
          <mxGeometry x="880" y="100" width="40" height="550" as="geometry" />
        </mxCell>
        <mxCell id="_eay62i7xfqFpYBntlEC-7" value="" style="endArrow=open;endFill=1;endSize=12;html=1;rounded=0;" parent="WIyWlLk6GJQsqaUBKTNV-1" edge="1">
          <mxGeometry width="160" relative="1" as="geometry">
            <mxPoint x="903.4966666666666" y="180.00000000000023" as="sourcePoint" />
            <mxPoint x="1016.5" y="180.00000000000023" as="targetPoint" />
          </mxGeometry>
        </mxCell>
        <mxCell id="_eay62i7xfqFpYBntlEC-43" value="&lt;div style=&quot;text-align: left;&quot;&gt;Start&lt;/div&gt;" style="edgeLabel;html=1;align=center;verticalAlign=middle;resizable=0;points=[];" parent="_eay62i7xfqFpYBntlEC-7" vertex="1" connectable="0">
          <mxGeometry x="-0.1397" y="1" relative="1" as="geometry">
            <mxPoint x="-30" y="-9" as="offset" />
          </mxGeometry>
        </mxCell>
        <mxCell id="_eay62i7xfqFpYBntlEC-8" value="" style="endArrow=open;endFill=1;endSize=12;html=1;rounded=0;" parent="WIyWlLk6GJQsqaUBKTNV-1" edge="1">
          <mxGeometry width="160" relative="1" as="geometry">
            <mxPoint x="1025" y="191.9999999999999" as="sourcePoint" />
            <mxPoint x="1505" y="191.9999999999999" as="targetPoint" />
          </mxGeometry>
        </mxCell>
        <mxCell id="_eay62i7xfqFpYBntlEC-17" value="&lt;font style=&quot;font-size: 11px;&quot;&gt;AddOrder(&lt;span style=&quot;font-size: 12px; text-align: left; text-wrap: wrap; background-color: rgb(27, 29, 30);&quot;&gt;transportOrder&lt;/span&gt;)&lt;/font&gt;" style="edgeLabel;html=1;align=center;verticalAlign=middle;resizable=0;points=[];" parent="_eay62i7xfqFpYBntlEC-8" vertex="1" connectable="0">
          <mxGeometry x="0.0272" y="3" relative="1" as="geometry">
            <mxPoint x="-175" y="-7" as="offset" />
          </mxGeometry>
        </mxCell>
        <mxCell id="_eay62i7xfqFpYBntlEC-11" value="" style="endArrow=open;endFill=1;endSize=12;html=1;rounded=0;" parent="WIyWlLk6GJQsqaUBKTNV-1" edge="1">
          <mxGeometry width="160" relative="1" as="geometry">
            <mxPoint x="1021" y="485" as="sourcePoint" />
            <mxPoint x="1385" y="484.9999999999998" as="targetPoint" />
            <Array as="points">
              <mxPoint x="1121.75" y="485" />
            </Array>
          </mxGeometry>
        </mxCell>
        <mxCell id="_eay62i7xfqFpYBntlEC-27" value="StoreProduct(product)" style="edgeLabel;html=1;align=center;verticalAlign=middle;resizable=0;points=[];" parent="_eay62i7xfqFpYBntlEC-11" vertex="1" connectable="0">
          <mxGeometry x="-0.1308" y="1" relative="1" as="geometry">
            <mxPoint x="-50" y="-9" as="offset" />
          </mxGeometry>
        </mxCell>
        <mxCell id="_eay62i7xfqFpYBntlEC-36" value="" style="endArrow=open;endSize=12;dashed=1;html=1;rounded=0;" parent="WIyWlLk6GJQsqaUBKTNV-1" edge="1">
          <mxGeometry width="160" relative="1" as="geometry">
            <mxPoint x="1385.5" y="520" as="sourcePoint" />
            <mxPoint x="1021" y="520" as="targetPoint" />
            <Array as="points">
              <mxPoint x="1187" y="520" />
            </Array>
          </mxGeometry>
        </mxCell>
        <mxCell id="uTPsAD51TObqUirzpCga-6" value="" style="endArrow=open;endFill=1;endSize=12;html=1;rounded=0;exitX=0.5;exitY=0;exitDx=0;exitDy=0;" parent="WIyWlLk6GJQsqaUBKTNV-1" source="l0bkgJuItSsvN-obVmJq-24" target="l0bkgJuItSsvN-obVmJq-28" edge="1">
          <mxGeometry width="160" relative="1" as="geometry">
            <mxPoint x="554" y="348" as="sourcePoint" />
            <mxPoint x="714" y="210" as="targetPoint" />
            <Array as="points">
              <mxPoint x="564" y="238" />
            </Array>
          </mxGeometry>
        </mxCell>
        <mxCell id="uTPsAD51TObqUirzpCga-7" value="1" style="edgeLabel;html=1;align=center;verticalAlign=middle;resizable=0;points=[];" parent="uTPsAD51TObqUirzpCga-6" vertex="1" connectable="0">
          <mxGeometry x="0.227" y="-1" relative="1" as="geometry">
            <mxPoint x="-94" y="-36" as="offset" />
          </mxGeometry>
        </mxCell>
        <mxCell id="PUuQY5kZzYGH_yBlLmXl-4" value="TargetCell" style="edgeLabel;html=1;align=center;verticalAlign=middle;resizable=0;points=[];" parent="uTPsAD51TObqUirzpCga-6" vertex="1" connectable="0">
          <mxGeometry x="-0.4392" y="-2" relative="1" as="geometry">
            <mxPoint x="-43" y="-45" as="offset" />
          </mxGeometry>
        </mxCell>
        <mxCell id="PUuQY5kZzYGH_yBlLmXl-21" value="ProcessingOrder" style="swimlane;fontStyle=0;childLayout=stackLayout;horizontal=1;startSize=26;fillColor=none;horizontalStack=0;resizeParent=1;resizeParentMax=0;resizeLast=0;collapsible=1;marginBottom=0;whiteSpace=wrap;html=1;" parent="WIyWlLk6GJQsqaUBKTNV-1" vertex="1">
          <mxGeometry x="570" y="490" width="190" height="160" as="geometry" />
        </mxCell>
        <mxCell id="PUuQY5kZzYGH_yBlLmXl-22" value="+&amp;nbsp;&lt;span style=&quot;text-align: center;&quot;&gt;ProcessingOrderNumber&lt;/span&gt;: int" style="text;strokeColor=none;fillColor=none;align=left;verticalAlign=top;spacingLeft=4;spacingRight=4;overflow=hidden;rotatable=0;points=[[0,0.5],[1,0.5]];portConstraint=eastwest;whiteSpace=wrap;html=1;" parent="PUuQY5kZzYGH_yBlLmXl-21" vertex="1">
          <mxGeometry y="26" width="190" height="26" as="geometry" />
        </mxCell>
        <mxCell id="PUuQY5kZzYGH_yBlLmXl-26" value="" style="line;strokeWidth=1;fillColor=none;align=left;verticalAlign=middle;spacingTop=-1;spacingLeft=3;spacingRight=3;rotatable=0;labelPosition=right;points=[];portConstraint=eastwest;strokeColor=inherit;" parent="PUuQY5kZzYGH_yBlLmXl-21" vertex="1">
          <mxGeometry y="52" width="190" height="10" as="geometry" />
        </mxCell>
        <mxCell id="yoqyse9WjdH-OK3mJFdb-4" value="+ AddOrder(order: TransportOrder): void" style="text;strokeColor=none;fillColor=none;align=left;verticalAlign=top;spacingLeft=4;spacingRight=4;overflow=hidden;rotatable=0;points=[[0,0.5],[1,0.5]];portConstraint=eastwest;whiteSpace=wrap;html=1;" parent="PUuQY5kZzYGH_yBlLmXl-21" vertex="1">
          <mxGeometry y="62" width="190" height="38" as="geometry" />
        </mxCell>
        <mxCell id="PUuQY5kZzYGH_yBlLmXl-28" value="+ChangeOrderQuantity&lt;div&gt;(TransportOrder: order, newQuantity: int): void&lt;/div&gt;" style="text;strokeColor=none;fillColor=none;align=left;verticalAlign=top;spacingLeft=4;spacingRight=4;overflow=hidden;rotatable=0;points=[[0,0.5],[1,0.5]];portConstraint=eastwest;whiteSpace=wrap;html=1;" parent="PUuQY5kZzYGH_yBlLmXl-21" vertex="1">
          <mxGeometry y="100" width="190" height="60" as="geometry" />
        </mxCell>
        <mxCell id="PUuQY5kZzYGH_yBlLmXl-30" value="&lt;b&gt;:ProcessingOrder&lt;/b&gt;" style="shape=umlLifeline;perimeter=lifelinePerimeter;whiteSpace=wrap;html=1;container=1;dropTarget=0;collapsible=0;recursiveResize=0;outlineConnect=0;portConstraint=eastwest;newEdgeStyle={&quot;curved&quot;:0,&quot;rounded&quot;:0};" parent="WIyWlLk6GJQsqaUBKTNV-1" vertex="1">
          <mxGeometry x="1460" y="120" width="100" height="560" as="geometry" />
        </mxCell>
        <mxCell id="PUuQY5kZzYGH_yBlLmXl-31" value="" style="html=1;points=[[0,0,0,0,5],[0,1,0,0,-5],[1,0,0,0,5],[1,1,0,0,-5]];perimeter=orthogonalPerimeter;outlineConnect=0;targetShapes=umlLifeline;portConstraint=eastwest;newEdgeStyle={&quot;curved&quot;:0,&quot;rounded&quot;:0};" parent="PUuQY5kZzYGH_yBlLmXl-30" vertex="1">
          <mxGeometry x="45" y="50" width="10" height="180" as="geometry" />
        </mxCell>
        <mxCell id="G9Mh11JKiJDhLzEOdRdI-1" value="" style="endArrow=open;endFill=1;endSize=12;html=1;rounded=0;exitX=0.511;exitY=1;exitDx=0;exitDy=0;exitPerimeter=0;" parent="WIyWlLk6GJQsqaUBKTNV-1" source="JqkSWuU3WNlZwDRj2-x3-0" target="PUuQY5kZzYGH_yBlLmXl-21" edge="1">
          <mxGeometry width="160" relative="1" as="geometry">
            <mxPoint x="393.5098039215686" y="508" as="sourcePoint" />
            <mxPoint x="604" y="288" as="targetPoint" />
          </mxGeometry>
        </mxCell>
        <mxCell id="G9Mh11JKiJDhLzEOdRdI-2" value="1" style="edgeLabel;html=1;align=center;verticalAlign=middle;resizable=0;points=[];" parent="G9Mh11JKiJDhLzEOdRdI-1" vertex="1" connectable="0">
          <mxGeometry x="-0.6903" relative="1" as="geometry">
            <mxPoint x="10" as="offset" />
          </mxGeometry>
        </mxCell>
        <mxCell id="G9Mh11JKiJDhLzEOdRdI-3" value="0..1" style="edgeLabel;html=1;align=center;verticalAlign=middle;resizable=0;points=[];" parent="G9Mh11JKiJDhLzEOdRdI-1" vertex="1" connectable="0">
          <mxGeometry x="0.481" relative="1" as="geometry">
            <mxPoint x="10" as="offset" />
          </mxGeometry>
        </mxCell>
        <mxCell id="G9Mh11JKiJDhLzEOdRdI-13" value="Execute" style="edgeLabel;html=1;align=center;verticalAlign=middle;resizable=0;points=[];" parent="G9Mh11JKiJDhLzEOdRdI-1" vertex="1" connectable="0">
          <mxGeometry x="-0.0675" y="6" relative="1" as="geometry">
            <mxPoint as="offset" />
          </mxGeometry>
        </mxCell>
        <mxCell id="G9Mh11JKiJDhLzEOdRdI-7" value="" style="endArrow=open;endFill=1;endSize=12;html=1;rounded=0;exitX=1;exitY=0;exitDx=0;exitDy=0;" parent="WIyWlLk6GJQsqaUBKTNV-1" source="PUuQY5kZzYGH_yBlLmXl-21" target="l0bkgJuItSsvN-obVmJq-24" edge="1">
          <mxGeometry width="160" relative="1" as="geometry">
            <mxPoint x="464" y="588" as="sourcePoint" />
            <mxPoint x="624" y="588" as="targetPoint" />
          </mxGeometry>
        </mxCell>
        <mxCell id="G9Mh11JKiJDhLzEOdRdI-8" value="1" style="edgeLabel;html=1;align=center;verticalAlign=middle;resizable=0;points=[];" parent="G9Mh11JKiJDhLzEOdRdI-7" vertex="1" connectable="0">
          <mxGeometry x="-0.8464" relative="1" as="geometry">
            <mxPoint y="9" as="offset" />
          </mxGeometry>
        </mxCell>
        <mxCell id="G9Mh11JKiJDhLzEOdRdI-9" value="0..*" style="edgeLabel;html=1;align=center;verticalAlign=middle;resizable=0;points=[];" parent="G9Mh11JKiJDhLzEOdRdI-7" vertex="1" connectable="0">
          <mxGeometry x="0.6921" y="2" relative="1" as="geometry">
            <mxPoint x="3" y="14" as="offset" />
          </mxGeometry>
        </mxCell>
        <mxCell id="G9Mh11JKiJDhLzEOdRdI-12" value="consists of" style="edgeLabel;html=1;align=center;verticalAlign=middle;resizable=0;points=[];" parent="G9Mh11JKiJDhLzEOdRdI-7" vertex="1" connectable="0">
          <mxGeometry x="-0.1298" y="2" relative="1" as="geometry">
            <mxPoint as="offset" />
          </mxGeometry>
        </mxCell>
        <mxCell id="yoqyse9WjdH-OK3mJFdb-28" value="" style="endArrow=open;endSize=12;dashed=1;html=1;rounded=0;" parent="WIyWlLk6GJQsqaUBKTNV-1" edge="1">
          <mxGeometry width="160" relative="1" as="geometry">
            <mxPoint x="1017.5400000000002" y="620" as="sourcePoint" />
            <mxPoint x="902.4685714285714" y="620" as="targetPoint" />
            <Array as="points">
              <mxPoint x="952.5400000000001" y="620" />
            </Array>
          </mxGeometry>
        </mxCell>
        <mxCell id="yoqyse9WjdH-OK3mJFdb-29" value="16. loading completed" style="edgeLabel;html=1;align=center;verticalAlign=middle;resizable=0;points=[];" parent="yoqyse9WjdH-OK3mJFdb-28" vertex="1" connectable="0">
          <mxGeometry x="0.7802" relative="1" as="geometry">
            <mxPoint x="45" y="-10" as="offset" />
          </mxGeometry>
        </mxCell>
        <mxCell id="2xw8E0_LIXd4TehW0N6p-0" value="" style="endArrow=open;endFill=1;endSize=12;html=1;rounded=0;exitX=0.25;exitY=0;exitDx=0;exitDy=0;entryX=1;entryY=0.5;entryDx=0;entryDy=0;" parent="WIyWlLk6GJQsqaUBKTNV-1" source="l0bkgJuItSsvN-obVmJq-24" target="PUuQY5kZzYGH_yBlLmXl-20" edge="1">
          <mxGeometry width="160" relative="1" as="geometry">
            <mxPoint x="649" y="356" as="sourcePoint" />
            <mxPoint x="394" y="170" as="targetPoint" />
            <Array as="points">
              <mxPoint x="550" y="260" />
            </Array>
          </mxGeometry>
        </mxCell>
        <mxCell id="2xw8E0_LIXd4TehW0N6p-1" value="1" style="edgeLabel;html=1;align=center;verticalAlign=middle;resizable=0;points=[];" parent="2xw8E0_LIXd4TehW0N6p-0" vertex="1" connectable="0">
          <mxGeometry x="0.227" y="-1" relative="1" as="geometry">
            <mxPoint x="-88" y="-31" as="offset" />
          </mxGeometry>
        </mxCell>
        <mxCell id="2xw8E0_LIXd4TehW0N6p-2" value="SourceCell" style="edgeLabel;html=1;align=center;verticalAlign=middle;resizable=0;points=[];" parent="2xw8E0_LIXd4TehW0N6p-0" vertex="1" connectable="0">
          <mxGeometry x="-0.4392" y="-2" relative="1" as="geometry">
            <mxPoint x="-40" y="-21" as="offset" />
          </mxGeometry>
        </mxCell>
        <mxCell id="2xw8E0_LIXd4TehW0N6p-3" value="0..n" style="edgeLabel;html=1;align=center;verticalAlign=middle;resizable=0;points=[];" parent="2xw8E0_LIXd4TehW0N6p-0" vertex="1" connectable="0">
          <mxGeometry x="-0.8241" y="1" relative="1" as="geometry">
            <mxPoint y="-1" as="offset" />
          </mxGeometry>
        </mxCell>
        <mxCell id="2xw8E0_LIXd4TehW0N6p-10" value="" style="endArrow=open;endFill=1;endSize=12;html=1;rounded=0;" parent="WIyWlLk6GJQsqaUBKTNV-1" edge="1">
          <mxGeometry width="160" relative="1" as="geometry">
            <mxPoint x="1020" y="305" as="sourcePoint" />
            <mxPoint x="1262" y="305" as="targetPoint" />
          </mxGeometry>
        </mxCell>
        <mxCell id="2xw8E0_LIXd4TehW0N6p-11" value="MoveToCell(sourceCell)" style="edgeLabel;html=1;align=center;verticalAlign=middle;resizable=0;points=[];" parent="2xw8E0_LIXd4TehW0N6p-10" vertex="1" connectable="0">
          <mxGeometry x="-0.333" y="1" relative="1" as="geometry">
            <mxPoint x="-18" y="-9" as="offset" />
          </mxGeometry>
        </mxCell>
        <mxCell id="2xw8E0_LIXd4TehW0N6p-12" value="" style="endArrow=open;endSize=12;dashed=1;html=1;rounded=0;" parent="WIyWlLk6GJQsqaUBKTNV-1" edge="1" source="PUuQY5kZzYGH_yBlLmXl-31">
          <mxGeometry width="160" relative="1" as="geometry">
            <mxPoint x="1500" y="210" as="sourcePoint" />
            <mxPoint x="1025" y="210.00000000000023" as="targetPoint" />
            <Array as="points">
              <mxPoint x="1195.94" y="210" />
            </Array>
          </mxGeometry>
        </mxCell>
        <mxCell id="6RR9bcma4TfbBJZwcNFz-1" value="" style="endArrow=open;endFill=1;endSize=12;html=1;rounded=0;" parent="WIyWlLk6GJQsqaUBKTNV-1" edge="1" target="PUuQY5kZzYGH_yBlLmXl-31">
          <mxGeometry width="160" relative="1" as="geometry">
            <mxPoint x="1026" y="240" as="sourcePoint" />
            <mxPoint x="1501" y="240" as="targetPoint" />
            <Array as="points" />
          </mxGeometry>
        </mxCell>
        <mxCell id="6RR9bcma4TfbBJZwcNFz-2" value="ProcessOrders(&lt;span style=&quot;font-size: 12px; text-align: left; text-wrap: wrap; background-color: rgb(27, 29, 30);&quot;&gt;transportOrder&lt;/span&gt;)&amp;nbsp;&amp;nbsp;" style="edgeLabel;html=1;align=center;verticalAlign=middle;resizable=0;points=[];" parent="6RR9bcma4TfbBJZwcNFz-1" vertex="1" connectable="0">
          <mxGeometry x="-0.1308" y="1" relative="1" as="geometry">
            <mxPoint x="-123" y="-9" as="offset" />
          </mxGeometry>
        </mxCell>
        <mxCell id="6RR9bcma4TfbBJZwcNFz-4" value="" style="endArrow=open;endSize=12;dashed=1;html=1;rounded=0;" parent="WIyWlLk6GJQsqaUBKTNV-1" edge="1">
          <mxGeometry x="0.0287" y="50" width="160" relative="1" as="geometry">
            <mxPoint x="1260.9999999999998" y="325" as="sourcePoint" />
            <mxPoint x="1021" y="325" as="targetPoint" />
            <mxPoint as="offset" />
          </mxGeometry>
        </mxCell>
        <mxCell id="dlioZaG6fR1Z9XJ0UVmh-2" value="" style="endArrow=open;endSize=12;dashed=1;html=1;rounded=0;" edge="1" parent="WIyWlLk6GJQsqaUBKTNV-1">
          <mxGeometry x="0.001" width="160" relative="1" as="geometry">
            <mxPoint x="1505" y="250.00000000000023" as="sourcePoint" />
            <mxPoint x="1026" y="250" as="targetPoint" />
            <mxPoint as="offset" />
          </mxGeometry>
        </mxCell>
        <mxCell id="dlioZaG6fR1Z9XJ0UVmh-4" value="" style="endArrow=open;endFill=1;endSize=12;html=1;rounded=0;" edge="1" parent="WIyWlLk6GJQsqaUBKTNV-1">
          <mxGeometry width="160" relative="1" as="geometry">
            <mxPoint x="1022.5" y="355" as="sourcePoint" />
            <mxPoint x="1386" y="355.0000000000002" as="targetPoint" />
          </mxGeometry>
        </mxCell>
        <mxCell id="dlioZaG6fR1Z9XJ0UVmh-6" value="&lt;span style=&quot;font-size: 12px; text-align: left; text-wrap: wrap; background-color: rgb(27, 29, 30);&quot;&gt;LoadOrder(&lt;/span&gt;&lt;span style=&quot;font-size: 12px; text-align: left; text-wrap: wrap; background-color: rgb(27, 29, 30);&quot;&gt;transportOrder&lt;/span&gt;&lt;span style=&quot;font-size: 12px; text-align: left; text-wrap: wrap; background-color: rgb(27, 29, 30);&quot;&gt;)&lt;/span&gt;" style="edgeLabel;html=1;align=center;verticalAlign=middle;resizable=0;points=[];" vertex="1" connectable="0" parent="dlioZaG6fR1Z9XJ0UVmh-4">
          <mxGeometry x="-0.4393" relative="1" as="geometry">
            <mxPoint x="7" y="-9" as="offset" />
          </mxGeometry>
        </mxCell>
        <mxCell id="dlioZaG6fR1Z9XJ0UVmh-11" value="" style="endArrow=open;endFill=1;endSize=12;html=1;rounded=0;" edge="1" parent="WIyWlLk6GJQsqaUBKTNV-1">
          <mxGeometry width="160" relative="1" as="geometry">
            <mxPoint x="1021.5" y="445" as="sourcePoint" />
            <mxPoint x="1386" y="445" as="targetPoint" />
            <Array as="points">
              <mxPoint x="1166.74" y="445" />
            </Array>
          </mxGeometry>
        </mxCell>
        <mxCell id="dlioZaG6fR1Z9XJ0UVmh-12" value="&lt;span style=&quot;font-size: 12px; text-align: left; text-wrap: wrap; background-color: rgb(27, 29, 30);&quot;&gt;UnloadOrder(&lt;/span&gt;&lt;span style=&quot;font-size: 12px; text-align: left; text-wrap: wrap; background-color: rgb(27, 29, 30);&quot;&gt;transportOrder&lt;/span&gt;&lt;span style=&quot;font-size: 12px; text-align: left; text-wrap: wrap; background-color: rgb(27, 29, 30);&quot;&gt;)&lt;/span&gt;" style="edgeLabel;html=1;align=center;verticalAlign=middle;resizable=0;points=[];" vertex="1" connectable="0" parent="dlioZaG6fR1Z9XJ0UVmh-11">
          <mxGeometry x="-0.4393" relative="1" as="geometry">
            <mxPoint x="11" y="-11" as="offset" />
          </mxGeometry>
        </mxCell>
        <mxCell id="dlioZaG6fR1Z9XJ0UVmh-13" value="" style="endArrow=open;endSize=12;dashed=1;html=1;rounded=0;" edge="1" parent="WIyWlLk6GJQsqaUBKTNV-1">
          <mxGeometry width="160" relative="1" as="geometry">
            <mxPoint x="1386" y="455" as="sourcePoint" />
            <mxPoint x="1021.5" y="455" as="targetPoint" />
            <Array as="points">
              <mxPoint x="1172.5700000000002" y="455" />
              <mxPoint x="1156.5" y="455" />
              <mxPoint x="1142.5700000000002" y="455" />
            </Array>
          </mxGeometry>
        </mxCell>
        <mxCell id="dlioZaG6fR1Z9XJ0UVmh-14" value="" style="endArrow=open;endFill=1;endSize=12;html=1;rounded=0;" edge="1" parent="WIyWlLk6GJQsqaUBKTNV-1" target="dlioZaG6fR1Z9XJ0UVmh-19">
          <mxGeometry width="160" relative="1" as="geometry">
            <mxPoint x="1021" y="395.0000000000002" as="sourcePoint" />
            <mxPoint x="1265.75" y="399.65999999999985" as="targetPoint" />
            <Array as="points">
              <mxPoint x="1042" y="395" />
            </Array>
          </mxGeometry>
        </mxCell>
        <mxCell id="dlioZaG6fR1Z9XJ0UVmh-15" value="MoveToCell(targetCell)" style="edgeLabel;html=1;align=center;verticalAlign=middle;resizable=0;points=[];" vertex="1" connectable="0" parent="dlioZaG6fR1Z9XJ0UVmh-14">
          <mxGeometry x="-0.333" y="1" relative="1" as="geometry">
            <mxPoint x="-18" y="-9" as="offset" />
          </mxGeometry>
        </mxCell>
        <mxCell id="dlioZaG6fR1Z9XJ0UVmh-16" value="" style="endArrow=open;endSize=12;dashed=1;html=1;rounded=0;" edge="1" parent="WIyWlLk6GJQsqaUBKTNV-1">
          <mxGeometry x="0.0287" y="50" width="160" relative="1" as="geometry">
            <mxPoint x="1261" y="415" as="sourcePoint" />
            <mxPoint x="1021" y="415" as="targetPoint" />
            <mxPoint as="offset" />
          </mxGeometry>
        </mxCell>
        <mxCell id="dlioZaG6fR1Z9XJ0UVmh-22" value="" style="endArrow=open;endSize=12;dashed=1;html=1;rounded=0;" edge="1" parent="WIyWlLk6GJQsqaUBKTNV-1">
          <mxGeometry width="160" relative="1" as="geometry">
            <mxPoint x="1381" y="369.6600000000001" as="sourcePoint" />
            <mxPoint x="1022" y="370" as="targetPoint" />
            <Array as="points">
              <mxPoint x="1178" y="369.6600000000001" />
            </Array>
          </mxGeometry>
        </mxCell>
      </root>
    </mxGraphModel>
  </diagram>
</mxfile>
